HIERARCHY
ROOT SpineBase
{
  OFFSET 0.000000 0.000000 0.000000
  CHANNELS 6 Xposition Yposition Zposition Zrotation Xrotation Yrotation
  JOINT SpineMid
  {
    OFFSET -0.000000 33.130872 0.000000
    CHANNELS 3 Zrotation Xrotation Yrotation
    JOINT SpineShoulder
    {
      OFFSET 0.168479 24.607409 -0.795359
      CHANNELS 3 Zrotation Xrotation Yrotation
      JOINT Neck
      {
        OFFSET 0.119262 8.142296 -0.599758
        CHANNELS 3 Zrotation Xrotation Yrotation
        JOINT Head
        {
          OFFSET 6.747407 11.549105 4.609452
          CHANNELS 3 Zrotation Xrotation Yrotation
          End Site
          {
            OFFSET 0 0 0
          }
        }
      }
      JOINT ShoulderLeft
      {
        OFFSET -6.765977 -3.423861 -15.041229
        CHANNELS 3 Zrotation Xrotation Yrotation
        JOINT ElbowLeft
        {
          OFFSET -5.185844 -21.948434 -8.688306
          CHANNELS 3 Zrotation Xrotation Yrotation
          JOINT WristLeft
          {
            OFFSET 6.874976 -21.932774 -2.210846
            CHANNELS 3 Zrotation Xrotation Yrotation
            JOINT HandLeft
            {
              OFFSET 1.061328 -9.303977 3.397398
              CHANNELS 3 Zrotation Xrotation Yrotation
              JOINT HandTipLeft
              {
                OFFSET 3.100822 -9.214635 0.587751
                CHANNELS 3 Zrotation Xrotation Yrotation
                End Site
                {
                  OFFSET 0 0 0
                }
              }
              JOINT ThumbLeft
              {
                OFFSET -2.374888 -3.495296 -2.947383
                CHANNELS 3 Zrotation Xrotation Yrotation
                End Site
                {
                  OFFSET 0 0 0
                }
              }
            }
          }
        }
      }
      JOINT ShoulderRight
      {
        OFFSET 8.670919 -2.533434 16.082328
        CHANNELS 3 Zrotation Xrotation Yrotation
        JOINT ElbowRight
        {
          OFFSET 2.904045 -30.080012 1.354143
          CHANNELS 3 Zrotation Xrotation Yrotation
          JOINT WristRight
          {
            OFFSET 2.679318 -26.031272 -3.186580
            CHANNELS 3 Zrotation Xrotation Yrotation
            JOINT HandRight
            {
              OFFSET 0.688466 -3.207397 -1.125626
              CHANNELS 3 Zrotation Xrotation Yrotation
              JOINT HandTipRight
              {
                OFFSET -0.198514 -5.193111 -1.206333
                CHANNELS 3 Zrotation Xrotation Yrotation
                End Site
                {
                  OFFSET 0 0 0
                }
              }
              JOINT ThumbRight
              {
                OFFSET 1.741170 -0.680123 0.112430
                CHANNELS 3 Zrotation Xrotation Yrotation
                End Site
                {
                  OFFSET 0 0 0
                }
              }
            }
          }
        }
      }
    }
  }
  JOINT HipLeft
  {
    OFFSET -2.649178 1.901232 -9.387521
    CHANNELS 3 Zrotation Xrotation Yrotation
    JOINT KneeLeft
    {
      OFFSET -5.975219 -33.193018 -5.565894
      CHANNELS 3 Zrotation Xrotation Yrotation
      JOINT AnkleLeft
      {
        OFFSET -10.105754 -33.906246 6.581980
        CHANNELS 3 Zrotation Xrotation Yrotation
        JOINT FootLeft
        {
          OFFSET 4.690133 -7.191361 -0.281178
          CHANNELS 3 Zrotation Xrotation Yrotation
          End Site
          {
            OFFSET 0 0 0
          }
        }
      }
    }
  }
  JOINT HipRight
  {
    OFFSET 3.728562 0.231063 2.208098
    CHANNELS 3 Zrotation Xrotation Yrotation
    JOINT KneeRight
    {
      OFFSET -0.183169 -34.392772 0.488987
      CHANNELS 3 Zrotation Xrotation Yrotation
      JOINT AnkleRight
      {
        OFFSET -9.169892 -32.249833 0.556194
        CHANNELS 3 Zrotation Xrotation Yrotation
        JOINT FootRight
        {
          OFFSET 2.487402 -7.311590 -7.673865
          CHANNELS 3 Zrotation Xrotation Yrotation
          End Site
          {
            OFFSET 0 0 0
          }
        }
      }
    }
  }
}
MOTION
Frames: 14
Frame Time: 0.033333
-43.404393 76.073980 321.900476 -1.752742 -0.977542 -58.209398 -0.271404 -0.142412 58.139200 -0.109966 0.063077 -0.083934 4.367020 1.392314 -1.182578 0.000000 0.000000 0.000000 0.930519 -0.638730 0.939345 -1.107462 -0.992279 -1.341920 -4.026164 -4.853491 -2.751879 0.630837 6.387822 2.705587 0.000000 0.000000 0.000000 0.000000 0.000000 0.000000 0.260636 -1.079990 -0.135861 -0.543973 4.955949 0.987245 18.671665 -31.706659 -7.889314 -12.997955 38.655820 9.521140 0.000000 0.000000 0.000000 0.000000 0.000000 0.000000 0.962634 -8.415305 60.767383 14.193179 5.913568 -2.575824 -14.438964 10.367377 7.455236 0.000000 0.000000 0.000000 -1.029475 5.575053 58.286744 8.041676 -10.107074 3.442540 -13.158352 3.639984 0.379098 0.000000 0.000000 0.000000
-42.182921 75.859158 321.672364 -2.670723 -0.693976 -55.972117 -0.197194 -0.041023 55.872833 -0.031596 0.053398 -0.113584 2.844800 0.510090 0.189583 0.000000 0.000000 0.000000 0.472979 -1.314379 1.545484 -1.037887 -0.252250 -1.680438 -2.125139 -4.521786 -2.605043 -2.432140 3.947261 1.772420 0.000000 0.000000 0.000000 0.000000 0.000000 0.000000 -0.261610 -2.447773 -0.288650 -0.708989 7.873634 1.670774 15.306876 -41.668656 -8.951966 -11.844906 59.387886 9.081323 0.000000 0.000000 0.000000 0.000000 0.000000 0.000000 1.059558 -8.612123 58.632694 14.245583 5.974831 -2.853078 -13.991329 10.717326 7.909901 0.000000 0.000000 0.000000 -0.564416 5.517565 56.047562 9.440332 -9.994102 3.505106 -13.588734 1.362037 -0.572202 0.000000 0.000000 0.000000
-40.851838 75.621285 321.468047 -3.713876 -0.529652 -53.226494 -0.167588 -0.087648 53.090149 -0.036544 0.013915 -0.159233 3.620780 -1.067450 1.278387 0.000000 0.000000 0.000000 0.019336 -2.074801 2.354787 -0.254852 0.789801 -2.229738 0.110941 -1.969476 -1.851215 -5.421459 0.561205 0.486135 0.000000 0.000000 0.000000 0.000000 0.000000 0.000000 -0.431931 -3.594004 -0.439785 -0.135936 10.740958 2.232270 11.413205 -46.113469 -9.945587 -70.937796 84.714669 65.784144 0.000000 0.000000 0.000000 0.000000 0.000000 0.000000 0.996664 -8.684338 55.976271 14.365297 6.113869 -3.162523 -14.635464 11.548738 9.041321 0.000000 0.000000 0.000000 0.000050 4.741943 53.272698 11.258462 -9.357119 3.463639 -14.723875 0.423491 0.072734 0.000000 0.000000 0.000000
-39.623757 75.344444 321.302499 -4.842869 -0.431436 -50.613365 -0.142232 -0.096320 50.438418 0.003156 -0.002472 -0.203732 5.855958 -2.418560 1.704483 0.000000 0.000000 0.000000 -0.222028 -2.962918 3.099052 0.494906 2.076928 -2.696358 2.605806 1.214440 -0.928557 -9.599694 -2.972195 -1.272324 0.000000 0.000000 0.000000 0.000000 0.000000 0.000000 -0.449928 -4.564048 -0.580410 0.965748 13.072822 2.548801 8.985884 -47.872632 -10.420066 -159.833957 67.500161 151.491542 0.000000 0.000000 0.000000 0.000000 0.000000 0.000000 1.131132 -8.744983 53.482709 14.685497 6.534764 -3.542355 -16.218470 12.597377 10.593348 0.000000 0.000000 0.000000 0.664025 3.928109 50.615083 12.470394 -8.548755 3.299108 -14.125495 -0.254305 -0.623396 0.000000 0.000000 0.000000
-38.450422 75.177357 321.019350 -6.226793 -0.539053 -47.129576 -0.099291 -0.132855 46.897086 0.050787 -0.051203 -0.258285 7.819474 -3.803856 2.546573 0.000000 0.000000 0.000000 -0.922918 -4.067939 4.204879 2.123682 3.863488 -3.550191 5.407449 4.558638 0.060777 -12.280958 -5.739002 -2.988784 0.000000 0.000000 0.000000 0.000000 0.000000 0.000000 0.070682 -4.973118 -0.642070 2.232803 14.784186 2.634269 7.399945 -49.223788 -10.714205 -169.722135 54.018952 159.761341 0.000000 0.000000 0.000000 0.000000 0.000000 0.000000 1.546228 -8.321428 50.069266 14.671935 7.180380 -3.891246 -18.072518 14.010427 12.606333 0.000000 0.000000 0.000000 1.818254 2.806436 47.029768 13.351475 -7.053967 2.941437 -12.383179 -0.125841 -1.923727 0.000000 0.000000 0.000000
-37.386405 75.146483 320.707033 -7.513676 -0.828461 -43.194404 0.001593 -0.134763 42.894544 0.130350 -0.111876 -0.303968 8.222735 -4.786445 3.733117 0.000000 0.000000 0.000000 -2.072349 -5.153696 5.400071 4.055892 5.920571 -4.501889 7.444324 7.143322 0.608078 -15.327119 -8.846288 -5.042631 0.000000 0.000000 0.000000 0.000000 0.000000 0.000000 0.818048 -4.760272 -0.617027 3.377214 16.218915 2.579188 6.133372 -50.792690 -10.933968 -171.668189 52.102744 161.889059 0.000000 0.000000 0.000000 0.000000 0.000000 0.000000 1.961465 -7.603540 46.120369 14.290596 7.744418 -4.110542 -19.961146 15.304661 14.602319 0.000000 0.000000 0.000000 3.019422 1.543405 42.963184 13.804512 -5.383062 2.546872 -11.504138 0.603463 -1.766434 0.000000 0.000000 0.000000
-36.551268 75.261816 320.444751 -9.005143 -1.277290 -38.628486 -0.087587 -0.198341 38.233869 0.136942 -0.118279 -0.368251 7.408702 -4.886930 4.992970 0.000000 0.000000 0.000000 -2.934148 -6.280374 6.665425 6.284763 7.480550 -5.753666 8.192259 8.516971 0.705325 -17.709826 -10.262820 -6.230742 0.000000 0.000000 0.000000 0.000000 0.000000 0.000000 2.583284 -3.974968 -0.445119 2.736741 15.453889 2.636217 6.678459 -51.828879 -11.345259 -173.335403 52.832218 163.847029 0.000000 0.000000 0.000000 0.000000 0.000000 0.000000 2.859172 -6.623056 41.474388 13.644353 8.641097 -4.329275 -21.766627 16.368419 16.558088 0.000000 0.000000 0.000000 4.444346 0.512542 38.225000 14.209563 -3.581453 2.141415 -10.429365 2.177690 -1.828904 0.000000 0.000000 0.000000
-35.722667 75.373601 319.831732 -10.296453 -1.714260 -31.870219 -0.071295 -0.193109 31.380837 0.141699 -0.124704 -0.418716 5.235513 -5.159172 6.661677 0.000000 0.000000 0.000000 -4.125366 -7.724285 7.924980 8.394624 9.070474 -7.157299 8.895992 9.061168 0.641925 -18.073349 -10.881702 -6.570832 0.000000 0.000000 0.000000 0.000000 0.000000 0.000000 4.077781 -3.419254 -0.342596 2.472129 15.282168 2.624260 6.337212 -51.812069 -11.475869 -170.535513 56.309584 161.816558 0.000000 0.000000 0.000000 0.000000 0.000000 0.000000 3.685300 -5.330356 34.444515 12.052845 8.409403 -4.032959 -23.341590 18.061814 18.704559 0.000000 0.000000 0.000000 5.896100 -1.387041 31.284713 14.518706 -1.520169 1.722724 -10.170951 3.350963 -1.277260 0.000000 0.000000 0.000000
-35.156158 75.828573 319.019162 -11.565083 -2.109953 -24.408560 0.052922 -0.174255 23.817712 0.249582 -0.116049 -0.456946 2.327715 -5.483272 8.445617 0.000000 0.000000 0.000000 -5.567086 -9.215597 9.132167 10.493494 10.464487 -8.631263 8.546538 8.465288 0.117276 -15.953532 -9.251068 -4.964503 0.000000 0.000000 0.000000 0.000000 0.000000 0.000000 5.068888 -2.917614 -0.284016 2.513503 15.081874 2.594118 6.681245 -51.176526 -11.237726 -170.225071 56.805323 161.327666 0.000000 0.000000 0.000000 0.000000 0.000000 0.000000 5.261677 -4.126360 26.595228 9.871392 8.026274 -3.548607 -25.019081 19.152573 20.350718 0.000000 0.000000 0.000000 7.501414 -3.143250 23.655654 13.969628 -0.033809 1.523349 -10.403019 4.715423 -0.148179 0.000000 0.000000 0.000000
-34.345763 75.941431 318.244582 -12.414589 -2.460496 -12.329461 -0.041652 -0.238200 11.652885 0.232527 -0.128509 -0.495460 -1.645039 -7.037798 11.048590 0.000000 0.000000 0.000000 -6.911149 -10.462471 10.195535 12.005593 11.377555 -9.944335 10.991156 11.084981 0.666279 -17.593208 -11.808739 -6.758050 0.000000 0.000000 0.000000 0.000000 0.000000 0.000000 5.976862 -2.484974 -0.241954 2.516917 15.080986 2.598906 6.695324 -51.177497 -11.238615 -169.957213 56.740596 161.019184 0.000000 0.000000 0.000000 0.000000 0.000000 0.000000 5.021875 -3.017042 14.192978 8.388237 5.309513 -2.731116 -28.281761 16.100315 17.877336 0.000000 0.000000 0.000000 7.349620 -6.398530 11.462492 14.689062 1.532978 1.250195 -13.813650 2.885309 2.761031 0.000000 0.000000 0.000000
-33.623433 75.189789 317.034502 -12.808920 -2.553495 -3.570733 -0.022927 -0.140847 2.871845 0.235197 -0.160746 -0.512595 -5.972442 -8.487128 13.090068 0.000000 0.000000 0.000000 -8.117033 -11.892994 10.856850 13.015226 12.674702 -10.757164 14.155974 11.752212 1.209207 -19.782904 -10.623834 -7.247324 0.000000 0.000000 0.000000 0.000000 0.000000 0.000000 6.292428 -2.434303 -0.227311 2.519887 15.081948 2.602900 6.706725 -51.179144 -11.239171 -169.767550 56.646028 160.789391 0.000000 0.000000 0.000000 0.000000 0.000000 0.000000 5.865937 -1.530313 4.995964 5.781875 1.267117 -1.536544 -22.891772 20.277415 18.957391 0.000000 0.000000 0.000000 6.856540 -9.379331 2.585313 13.525641 2.372561 1.389319 -13.710936 6.812925 4.913000 0.000000 0.000000 0.000000
-32.926583 73.931140 315.554087 -12.774702 -2.396642 0.489189 0.109168 -0.046980 -1.158231 0.264495 -0.184751 -0.507362 -10.646235 -9.956494 14.710105 0.000000 0.000000 0.000000 -9.249955 -13.285261 11.175005 13.274578 13.865158 -11.159312 19.240581 13.901113 2.331232 -23.792346 -9.849971 -8.959155 0.000000 0.000000 0.000000 0.000000 0.000000 0.000000 6.080646 -2.664671 -0.234113 2.522030 15.081684 2.605761 6.715216 -51.179973 -11.239552 -169.620685 56.586865 160.614670 0.000000 0.000000 0.000000 0.000000 0.000000 0.000000 6.786396 -0.094589 0.535867 4.076222 -2.515289 -0.483884 -20.088045 22.077694 18.203323 0.000000 0.000000 0.000000 6.407618 -11.666368 -1.550171 11.357712 2.819778 1.779421 -11.205934 15.996086 6.804089 0.000000 0.000000 0.000000
-32.167395 72.322347 314.458644 -12.780820 -2.309699 2.419129 0.098936 0.003840 -3.073822 0.218498 -0.186714 -0.511678 -10.717762 -9.562573 14.494034 0.000000 0.000000 0.000000 -10.029475 -14.331886 11.461573 14.249510 15.209634 -11.483199 21.529488 14.537274 2.838829 -24.681362 -7.791984 -8.726973 0.000000 0.000000 0.000000 0.000000 0.000000 0.000000 6.134177 -2.801815 -0.229426 2.524259 15.081176 2.608786 6.724186 -51.180436 -11.240022 -169.457579 56.537461 160.424487 0.000000 0.000000 0.000000 0.000000 0.000000 0.000000 8.388406 2.445913 -2.048862 1.687376 -7.869038 0.785824 -17.812615 24.592642 17.850676 0.000000 0.000000 0.000000 6.675211 -13.942812 -3.528487 8.454165 3.776840 2.240239 -6.024844 28.937947 6.733221 0.000000 0.000000 0.000000
-31.424667 70.341850 312.626714 -12.345258 -1.761178 0.308980 0.166566 0.165964 -0.867760 0.248451 -0.082922 -0.483506 -10.957114 -12.372059 14.975907 0.000000 0.000000 0.000000 -10.950364 -15.988319 11.362886 16.348886 16.593064 -12.046866 22.138020 13.352591 3.422780 -24.841880 -4.061028 -7.556766 0.000000 0.000000 0.000000 0.000000 0.000000 0.000000 5.609173 -3.628254 -0.249026 2.525481 15.081168 2.610266 6.728830 -51.180764 -11.239977 -169.392877 56.487389 160.341708 0.000000 0.000000 0.000000 0.000000 0.000000 0.000000 10.680778 4.133647 -0.749966 -0.099795 -10.655483 2.041424 -15.715115 30.953100 21.225304 0.000000 0.000000 0.000000 6.806722 -15.661287 -1.345526 6.094522 4.552432 2.694663 4.171998 45.278890 2.004950 0.000000 0.000000 0.000000
